<svg viewBox="0 0 64 64" xmlns="http://www.w3.org/2000/svg"><path d="m63 59v4h-62v-4h4 18 18 18z" fill="#422b57"/><path d="m41 45h18v14h-18z" fill="#774e9d"/><path d="m5 37h18v22h-18z" fill="#9c59a9"/><path d="m34 17v4h-4v-4l.07-.27a7.033 7.033 0 0 0 3.86 0z" fill="#ff9102"/><path d="m37 21v4h-10v-4h3 4z" fill="#ffcb02"/><path d="m39 10a5.365 5.365 0 0 1 -.08.99 6.972 6.972 0 0 1 -4.99 5.74 7.033 7.033 0 0 1 -3.86 0 6.972 6.972 0 0 1 -4.99-5.74 5.365 5.365 0 0 1 -.08-.99v-9h14z" fill="#ffcb02"/><path d="m23 25h18v34h-18z" fill="#cb73db"/><path d="m29.08 10.99a5.365 5.365 0 0 1 -.08-.99v-9h-4v9a5.365 5.365 0 0 0 .08.99 6.972 6.972 0 0 0 4.99 5.74 7.033 7.033 0 0 0 3.86 0c.024-.007.046-.019.07-.026a6.968 6.968 0 0 1 -4.92-5.714z" fill="#ffab02"/><path d="m41.515 8.826a2 2 0 0 0 .485-1.266v-3.56h-3v6a3.08 3.08 0 0 0 2.515-1.174z" fill="none"/><path d="m22 4v3.56a2 2 0 0 0 .492 1.274 3.073 3.073 0 0 0 2.508 1.166v-6z" fill="none"/><path d="m27 21v4h10v-2h-6a1 1 0 0 1 -1-1v-1z" fill="#ffab02"/><path d="m41 45v14h18v-3h-8a6 6 0 0 1 -6-6v-5z" fill="#654285"/><path d="m23 37v22h-18v-3h8a6 6 0 0 0 6-6v-13z" fill="#8b4f96"/><path d="m23 25v34h18v-3h-8a6 6 0 0 1 -6-6v-25z" fill="#b667c4"/><path d="m63 58h-3v-13a1 1 0 0 0 -1-1h-13v2h12v12h-16v-12h2v-2h-2v-10h-2v24h-16v-32h16v2h2v-3a1 1 0 0 0 -1-1h-3v-3a1 1 0 0 0 -1-1h-2v-2.589a8.024 8.024 0 0 0 4.75-5.464 5.007 5.007 0 0 0 3.3-1.84 3.95 3.95 0 0 0 .95-2.549v-4.558a1 1 0 0 0 -1-1h-3v-1a1 1 0 0 0 -1-1h-14a1 1 0 0 0 -1 1v1h-3a1 1 0 0 0 -1 1v4.558a3.95 3.95 0 0 0 .955 2.549 5.007 5.007 0 0 0 3.3 1.84 8.024 8.024 0 0 0 4.745 5.464v2.589h-2a1 1 0 0 0 -1 1v3h-3a1 1 0 0 0 -1 1v11h-2v2h2v20h-16v-20h12v-2h-13a1 1 0 0 0 -1 1v21h-3a1 1 0 0 0 -1 1v4a1 1 0 0 0 1 1h62a1 1 0 0 0 1-1v-4a1 1 0 0 0 -1-1zm-41-50.442v-3.558h2v5.844a3.068 3.068 0 0 1 -1.509-1.017 1.981 1.981 0 0 1 -.491-1.269zm20-3.558v3.558a1.981 1.981 0 0 1 -.491 1.269 3.068 3.068 0 0 1 -1.509 1.017v-5.844zm-16 6v-8h12v8a6 6 0 0 1 -12 0zm5 7.931a7.281 7.281 0 0 0 2 0v2.069h-2zm-3 4.069h8v2h-8zm34 40h-60v-2h60z"/><path d="m40 30h2v2h-2z"/><path d="m37 10h-2c0 .123-.045 3-4 3v2c4.746 0 6-3.271 6-5z"/></svg>